<?xml version="1.0" encoding="iso-8859-1"?>
<!-- Generator: Adobe Illustrator 21.0.0, SVG Export Plug-In . SVG Version: 6.00 Build 0)  -->
<svg xmlns="http://www.w3.org/2000/svg" xmlns:xlink="http://www.w3.org/1999/xlink" version="1.1" id="Capa_1" x="0px" y="0px" viewBox="0 0 511.997 511.997" style="enable-background:new 0 0 511.997 511.997;" xml:space="preserve" width="512" height="512">
<g>
	<g>
		<path style="fill:#5CC178;" d="M366.395,507.606c-2.714-2.714-4.392-6.463-4.392-10.607c0-8.286,6.712-14.998,14.998-14.998    c57.901,0,104.999-47.098,104.999-104.999c0-8.286,6.712-14.998,14.998-14.998s14.998,6.712,14.998,14.998    c0,74.433-60.563,134.996-134.996,134.996C372.858,511.997,369.109,510.319,366.395,507.606z"/>
	</g>
	<g>
		<path style="fill:#5CC178;" d="M366.395,447.612c-2.714-2.714-4.392-6.463-4.392-10.607c-0.01-8.276,6.712-14.998,14.998-14.998    c24.807-0.01,44.995-20.198,45.006-45.006c0-8.286,6.722-15.009,14.998-14.998c8.286,0,14.998,6.712,14.998,14.998    c-0.01,41.339-33.664,74.992-75.002,75.002C372.858,452.004,369.109,450.326,366.395,447.612z"/>
	</g>
	<g>
		<path style="fill:#8EDB5A;" d="M4.392,145.603C1.678,142.889,0,139.139,0,134.996C0,60.563,60.563,0,134.996,0    c8.286,0,14.998,6.712,14.998,14.998s-6.712,14.998-14.998,14.998c-57.901,0-104.999,47.098-104.999,104.999    c0,8.286-6.712,14.998-14.998,14.998C10.855,149.994,7.106,148.316,4.392,145.603z"/>
	</g>
	<g>
		<path style="fill:#8EDB5A;" d="M64.385,145.603c-2.714-2.714-4.392-6.463-4.392-10.607c0.01-41.339,33.664-74.992,75.002-75.002    c8.286,0,14.998,6.712,14.998,14.998c0.01,8.276-6.712,14.998-14.998,14.998c-24.807,0.01-44.995,20.198-45.006,45.006    c0,8.286-6.722,15.009-14.998,14.998C70.849,149.994,67.099,148.316,64.385,145.603z"/>
	</g>
	<path style="fill:#FFB99C;" d="M502.701,261.883c-42.001,41.999-61.8,61.8-103.801,103.799c-47.1,47.1-109.199,78.001-175.199,86.4   c-4.801,0.3-9.3-1.199-12.601-4.499l-53.099-53.101l-61.8-61.5c-3.001-3.3-4.501-7.8-4.2-12.301l19.799-189.3   c1.8-15.899,15-27.599,30.601-27.599c17.1,0,30.601,13.801,30.601,30.601l0.3,75.3l159.6-159.901c9-8.699,23.399-8.699,32.098,0   c8.701,9,8.701,23.101,0,31.8l-101.1,101.1c-5.7,5.7-5.7,15.3,0,21.301c6,5.7,15.3,5.7,21,0L407.301,81.583   c9-8.699,23.101-8.699,31.8,0c9,9,9,23.101,0,31.8L316.7,235.783c-5.7,5.7-5.7,15.3,0,21l0.3,0.298c5.7,5.7,15.3,5.7,21,0   l101.1-101.1c9-9,23.101-8.699,31.8,0c9,9.001,9,22.8,0,31.8l-101.1,101.1c-5.7,5.7-5.7,15.3,0,21h0.3c5.7,6,15.3,6,20.999,0   l79.801-79.799c9-8.701,23.101-8.701,31.8,0C511.7,239.083,511.7,253.182,502.701,261.883z"/>
	<path style="fill:#FF9468;" d="M502.701,261.883c-42.001,41.999-61.8,61.8-103.801,103.799c-47.1,47.1-109.199,78.001-175.199,86.4   c-4.801,0.3-9.3-1.199-12.601-4.499l-53.099-53.101L316.7,235.783c-5.7,5.7-5.7,15.3,0,21l0.3,0.298c5.7,5.7,15.3,5.7,21,0   l101.1-101.1c9-9,23.101-8.699,31.8,0c9,9.001,9,22.8,0,31.8l-101.1,101.1c-5.7,5.7-5.7,15.3,0,21h0.3c5.7,6,15.3,6,20.999,0   l79.801-79.799c9-8.701,23.101-8.701,31.8,0C511.7,239.083,511.7,253.182,502.701,261.883z"/>
</g>















</svg>
