<svg id="Capa_1" enable-background="new 0 0 512 512" height="512" viewBox="0 0 512 512" width="512" xmlns="http://www.w3.org/2000/svg"><g><path d="m51 463v34c0 8.284 6.716 15 15 15h380c8.284 0 15-6.716 15-15v-34l-10-15 10-15v-48c0-.334-.009-.667-.013-1l-12.987-16 7.801-14c-12.881-37.207-48.269-64-89.801-64h-220c-41.533 0-76.921 26.793-89.801 64l7.801 16-12.987 14c-.003.333-.013.666-.013 1v48l10 15z" fill="#6b61b1"/><path d="m448 368 7.801-14c-12.881-37.207-48.269-64-89.801-64h-110v222h190c8.284 0 15-6.716 15-15v-34l-10-15 10-15v-48c0-.334-.009-.667-.013-1z" fill="#453d81"/><path d="m455.801 354h-399.602c-3.261 9.421-5.077 19.509-5.186 30h409.975c-.11-10.491-1.925-20.579-5.187-30z" fill="#f5f5ff"/><path d="m256 384h204.987c-.109-10.491-1.924-20.579-5.186-30h-199.801z" fill="#e2e7fa"/><path d="m201 246.513v78.48c0 30.376 24.624 55 55 55 30.376 0 55-24.624 55-55v-78.48z" fill="#fac394"/><path d="m256 379.992c30.376 0 55-24.624 55-55v-78.479h-55z" fill="#f0b47f"/><path d="m51 433h410v30h-410z" fill="#f5f5ff"/><path d="m256 433h205v30h-205z" fill="#e2e7fa"/><path d="m151 75v100c0 57.99 47.01 105 105 105 57.99 0 105-47.01 105-105v-100c0-41.421-33.579-75-75-75h-60c-41.421 0-75 33.579-75 75z" fill="#ffd5b2"/><path d="m286 0h-30v280c57.99 0 105-47.01 105-105v-100c0-41.421-33.579-75-75-75z" fill="#fac394"/><path d="m286 0h-60c-41.421 0-75 33.579-75 75h210c0-41.421-33.579-75-75-75z" fill="#6b61b1"/><path d="m286 0h-30v75h105c0-41.421-33.579-75-75-75z" fill="#453d81"/><path d="m410.94 160.041-35.359-28.287 35.359-28.287c6.469-5.175 7.518-14.614 2.342-21.083s-14.613-7.519-21.083-2.343l-31.199 24.959-20 26.754 20.001 26.754 31.198 24.958c2.766 2.213 6.075 3.288 9.361 3.288 4.4 0 8.76-1.928 11.723-5.631 5.175-6.468 4.126-15.907-2.343-21.082z" fill="#2e2654"/><path d="m361 105h-210v53.509c37.434 43.168 82.168 37.013 105 11.113 22.832 25.9 67.566 32.054 105-11.113z" fill="#6b61b1"/><path d="m256 169.623c22.832 25.9 67.565 32.055 105-11.114v-53.509h-105z" fill="#453d81"/></g></svg>