<svg id="Layer_1" enable-background="new 0 0 510 510" height="512" viewBox="0 0 510 510" width="512" xmlns="http://www.w3.org/2000/svg"><g><path d="m135 90-52.5 10-52.5-10v-60h105z" fill="#465a61"/><path d="m375 90 52.5 10 52.5-10v-60h-105z" fill="#263b43"/><path d="m165 0v90l15 15 15-15v-60h60l10-15-10-15z" fill="#697c86"/><path d="m315 90 15 15 15-15v-90h-90v30h60z" fill="#465a61"/><path d="m30 165v210l112.5 10 112.5-10 10-105-10-105-112.5-10z" fill="#78d3fc"/><path d="m480 165-112.5-10-112.5 10v210l112.5 10 112.5-10z" fill="#5fa7fb"/><path d="m30 375v60l112.5 10 112.5-10 10-30-10-30z" fill="#5fa7fb"/><path d="m480 375h-225v60l112.5 10 112.5-10z" fill="#6285fa"/><path d="m0 435v45l127.5 10 127.5-10 10-22.5-10-22.5z" fill="#697c86"/><path d="m510 435h-255v45l127.5 10 127.5-10z" fill="#465a61"/><path d="m0 480v30h255l10-15-10-15z" fill="#465a61"/><path d="m255 480h255v30h-255z" fill="#263b43"/><path d="m0 90v75h255l10-37.5-10-37.5z" fill="#ff712f"/><path d="m255 90h255v75h-255z" fill="#d63100"/><path d="m330 255h90v30h-90z" fill="#d9e7ec"/><path d="m180 255h-30v-30h-30v30h-30v30h30v30h30v-30h30z" fill="#f0f7ff"/></g></svg>