<svg id="Capa_1" enable-background="new 0 0 512 512" height="512" viewBox="0 0 512 512" width="512" xmlns="http://www.w3.org/2000/svg"><g><g><g><path d="m50 80h30v60h-30z" fill="#557f89"/></g><g><path d="m442 80h30v60h-30z" fill="#304b59"/></g><path d="m512 110v362h-512v-362h131.11l30-70h189.78l30 70z" fill="#d4f4ee"/><path d="m512 110v362h-256v-432h94.89l30 70z" fill="#b0daed"/><circle cx="256" cy="276" fill="#557f89" r="131"/><path d="m387 276c0 72.23-58.77 131-131 131v-262c72.23 0 131 58.77 131 131z" fill="#304b59"/><path d="m316 274.55c0 33.09-26.92 60-60 60-.28 0-.55 0-.83-.01-32.7-.44-59.17-27.18-59.17-59.99 0-32.8 26.47-59.55 59.17-59.99.28-.01.55-.01.83-.01 33.08 0 60 26.92 60 60z" fill="#00c2f3"/></g><path d="m316 274.55c0 33.09-26.92 60-60 60v-120c33.08 0 60 26.92 60 60z" fill="#1e90ff"/></g></svg>